<?xml version="1.0" encoding="UTF-8"?>
<svg version="1.1" xmlns="http://www.w3.org/2000/svg" width="151" height="160">
<path d="M0 0 C12.52142065 8.55780548 21.37130023 20.14744474 24.875 35.0625 C27.25294376 52.19515502 23.57487516 66.65513033 13.97265625 80.96484375 C5.24598276 92.11980899 -8.6801952 98.76298494 -22.484375 100.66015625 C-38.89510442 101.78278077 -53.30700136 97.332214 -65.875 86.6875 C-75.73209542 77.34672862 -82.10313666 64.69004521 -82.828125 51.0546875 C-83.13770453 34.16300922 -79.10907366 19.67221542 -67.109375 7.12890625 C-48.6541891 -9.61424197 -21.43519103 -12.57570847 0 0 Z M-35.625 -5.125 C-35.625 -4.795 -35.625 -4.465 -35.625 -4.125 C-31.005 -4.125 -26.385 -4.125 -21.625 -4.125 C-21.625 -4.455 -21.625 -4.785 -21.625 -5.125 C-26.245 -5.125 -30.865 -5.125 -35.625 -5.125 Z M-40.625 -4.125 C-36.625 -3.125 -36.625 -3.125 -36.625 -3.125 Z M-20.625 -4.125 C-16.625 -3.125 -16.625 -3.125 -16.625 -3.125 Z M-33.625 0.875 C-33.625 2.525 -33.625 4.175 -33.625 5.875 C-33.295 5.875 -32.965 5.875 -32.625 5.875 C-32.625 4.225 -32.625 2.575 -32.625 0.875 C-32.955 0.875 -33.285 0.875 -33.625 0.875 Z M-22.625 0.875 C-21.625 2.875 -21.625 2.875 -21.625 2.875 Z M-23.625 4.875 C-22.625 6.875 -22.625 6.875 -22.625 6.875 Z M-21.625 4.875 C-20.965 5.535 -20.305 6.195 -19.625 6.875 C-19.625 6.215 -19.625 5.555 -19.625 4.875 C-20.285 4.875 -20.945 4.875 -21.625 4.875 Z M-31.625 9.875 C-31.625 10.205 -31.625 10.535 -31.625 10.875 C-29.645 10.875 -27.665 10.875 -25.625 10.875 C-25.625 10.545 -25.625 10.215 -25.625 9.875 C-27.605 9.875 -29.585 9.875 -31.625 9.875 Z M-71.625 16.875 C-70.625 18.875 -70.625 18.875 -70.625 18.875 Z M15.375 20.875 C16.375 22.875 16.375 22.875 16.375 22.875 Z M-74.625 21.875 C-73.625 23.875 -73.625 23.875 -73.625 23.875 Z M16.375 22.875 C17.375 24.875 17.375 24.875 17.375 24.875 Z M-75.625 23.875 C-74.625 25.875 -74.625 25.875 -74.625 25.875 Z M11.375 24.875 C12.375 26.875 12.375 26.875 12.375 26.875 Z M17.375 24.875 C18.375 26.875 18.375 26.875 18.375 26.875 Z M-76.625 25.875 C-75.625 27.875 -75.625 27.875 -75.625 27.875 Z M18.375 26.875 C19.375 28.875 19.375 28.875 19.375 28.875 Z M-77.625 28.875 C-76.625 30.875 -76.625 30.875 -76.625 30.875 Z M1.375 27.875 C-1.63817048 27.55088494 -1.63817048 27.55088494 -5.1640625 27.80078125 C-6.46601562 27.85556641 -7.76796875 27.91035156 -9.109375 27.96679688 C-10.48960084 28.04003535 -11.86980902 28.11360739 -13.25 28.1875 C-14.63795766 28.25075075 -16.02597916 28.3126171 -17.4140625 28.37304688 C-20.81858245 28.52672312 -24.22180622 28.69463768 -27.625 28.875 C-27.625 29.205 -27.625 29.535 -27.625 29.875 C-17.395 30.205 -7.165 30.535 3.375 30.875 C2.715 29.885 2.055 28.895 1.375 27.875 Z M19.375 29.875 C20.375 31.875 20.375 31.875 20.375 31.875 Z M-78.625 31.875 C-77.625 34.875 -77.625 34.875 -77.625 34.875 Z M-67.625 31.875 C-66.625 33.875 -66.625 33.875 -66.625 33.875 Z M-62.625 32.875 C-62.625 33.535 -62.625 34.195 -62.625 34.875 C-60.56257383 34.90217692 -58.50004297 34.9214758 -56.4375 34.9375 C-55.28894531 34.94910156 -54.14039063 34.96070313 -52.95703125 34.97265625 C-50.03199414 34.88692832 -47.46183709 34.55349023 -44.625 33.875 C-44.625 33.545 -44.625 33.215 -44.625 32.875 C-50.565 32.875 -56.505 32.875 -62.625 32.875 Z M-38.625 32.875 C-33.64979657 36.19180229 -29.49392336 36.15898016 -23.625 35.875 C-22.965 35.215 -22.305 34.555 -21.625 33.875 C-27.235 33.545 -32.845 33.215 -38.625 32.875 Z M20.375 32.875 C21.375 36.875 21.375 36.875 21.375 36.875 Z M-8.625 33.875 C-8.625 34.205 -8.625 34.535 -8.625 34.875 C-6.315 35.205 -4.005 35.535 -1.625 35.875 C-1.295 35.215 -0.965 34.555 -0.625 33.875 C-3.265 33.875 -5.905 33.875 -8.625 33.875 Z M-63.625 34.875 C-62.625 36.875 -62.625 36.875 -62.625 36.875 Z M4.375 33.875 C2.395 34.865 2.395 34.865 0.375 35.875 C2.025 35.875 3.675 35.875 5.375 35.875 C5.045 35.215 4.715 34.555 4.375 33.875 Z M-79.625 35.875 C-79.625 37.525 -79.625 39.175 -79.625 40.875 C-79.295 40.875 -78.965 40.875 -78.625 40.875 C-78.625 39.225 -78.625 37.575 -78.625 35.875 C-78.955 35.875 -79.285 35.875 -79.625 35.875 Z M-55.625 37.875 C-56.12 45.3 -56.12 45.3 -56.625 52.875 C-55.160625 52.71 -53.69625 52.545 -52.1875 52.375 C-38.89580779 51.09296444 -38.89580779 51.09296444 -35.1875 53.375 C-34.671875 53.87 -34.15625 54.365 -33.625 54.875 C-32.965 54.875 -32.305 54.875 -31.625 54.875 C-31.625 55.535 -31.625 56.195 -31.625 56.875 C-28.09680533 57.27822225 -26.88223855 57.06045105 -23.9375 54.9375 C-23.174375 54.256875 -22.41125 53.57625 -21.625 52.875 C-15.77336187 49.94918093 -6.8966538 52.14177951 -0.625 52.875 C-0.76620714 50.93715735 -0.91312873 48.99973045 -1.0625 47.0625 C-1.14371094 45.98355469 -1.22492188 44.90460937 -1.30859375 43.79296875 C-1.52712461 40.81510095 -1.52712461 40.81510095 -2.625 37.875 C-10.58200324 35.84269592 -10.58200324 35.84269592 -18.625 35.875 C-20.74229416 37.32301032 -22.67534656 38.86426321 -24.59765625 40.5625 C-27.18370827 42.23670709 -28.59633769 42.33504997 -31.625 41.875 C-33.43359375 40.5625 -33.43359375 40.5625 -35.0625 38.875 C-37.80890505 36.35941255 -37.80890505 36.35941255 -41.375 35.375 C-46.14859099 36.10939861 -50.88391205 36.94990967 -55.625 37.875 Z M5.375 36.875 C6.375 38.875 6.375 38.875 6.375 38.875 Z M21.375 36.875 C21.375 43.145 21.375 49.415 21.375 55.875 C21.705 55.875 22.035 55.875 22.375 55.875 C22.375 49.605 22.375 43.335 22.375 36.875 C22.045 36.875 21.715 36.875 21.375 36.875 Z M-63.625 37.875 C-63.955 39.195 -64.285 40.515 -64.625 41.875 C-62.645 41.545 -60.665 41.215 -58.625 40.875 C-58.625 40.215 -58.625 39.555 -58.625 38.875 C-60.275 38.545 -61.925 38.215 -63.625 37.875 Z M0.375 39.875 C0.375 40.535 0.375 41.195 0.375 41.875 C2.355 41.875 4.335 41.875 6.375 41.875 C6.375 41.215 6.375 40.555 6.375 39.875 C4.395 39.875 2.415 39.875 0.375 39.875 Z M-80.625 41.875 C-80.625 44.845 -80.625 47.815 -80.625 50.875 C-80.295 50.875 -79.965 50.875 -79.625 50.875 C-79.625 47.905 -79.625 44.935 -79.625 41.875 C-79.955 41.875 -80.285 41.875 -80.625 41.875 Z M-64.625 43.875 C-64.625 44.865 -64.625 45.855 -64.625 46.875 C-62.645 46.875 -60.665 46.875 -58.625 46.875 C-58.625 45.885 -58.625 44.895 -58.625 43.875 C-60.605 43.875 -62.585 43.875 -64.625 43.875 Z M6.375 41.875 C6.375 43.195 6.375 44.515 6.375 45.875 C4.725 45.875 3.075 45.875 1.375 45.875 C1.375 46.535 1.375 47.195 1.375 47.875 C3.025 47.875 4.675 47.875 6.375 47.875 C6.705 48.865 7.035 49.855 7.375 50.875 C7.375 47.905 7.375 44.935 7.375 41.875 C7.045 41.875 6.715 41.875 6.375 41.875 Z M-64.625 49.875 C-64.295 51.195 -63.965 52.515 -63.625 53.875 C-63.625 53.215 -63.625 52.555 -63.625 51.875 C-61.645 52.37 -61.645 52.37 -59.625 52.875 C-59.625 51.885 -59.625 50.895 -59.625 49.875 C-61.275 49.875 -62.925 49.875 -64.625 49.875 Z M-79.625 51.875 C-79.625 53.525 -79.625 55.175 -79.625 56.875 C-79.295 56.875 -78.965 56.875 -78.625 56.875 C-78.625 55.225 -78.625 53.575 -78.625 51.875 C-78.955 51.875 -79.285 51.875 -79.625 51.875 Z M2.375 51.875 C2.375 52.535 2.375 53.195 2.375 53.875 C3.365 53.875 4.355 53.875 5.375 53.875 C5.705 54.535 6.035 55.195 6.375 55.875 C6.375 54.555 6.375 53.235 6.375 51.875 C5.055 51.875 3.735 51.875 2.375 51.875 Z M15.375 53.875 C16.375 55.875 16.375 55.875 16.375 55.875 Z M-63.625 55.875 C-62.965 57.195 -62.305 58.515 -61.625 59.875 C-61.625 59.215 -61.625 58.555 -61.625 57.875 C-60.69558594 58.03871094 -59.76617187 58.20242187 -58.80859375 58.37109375 C-53.77770771 59.08979176 -48.75883491 58.98256313 -43.6875 58.9375 C-42.2324707 58.93073242 -42.2324707 58.93073242 -40.74804688 58.92382812 C-38.3736324 58.9121315 -35.99934979 58.89574086 -33.625 58.875 C-33.955 58.215 -34.285 57.555 -34.625 56.875 C-44.195 56.545 -53.765 56.215 -63.625 55.875 Z M20.375 55.875 C21.375 59.875 21.375 59.875 21.375 59.875 Z M-22.625 56.875 C-22.955 57.535 -23.285 58.195 -23.625 58.875 C-9.765 59.865 -9.765 59.865 4.375 60.875 C4.705 59.885 5.035 58.895 5.375 57.875 C-8.485 57.38 -8.485 57.38 -22.625 56.875 Z M-78.625 57.875 C-77.625 60.875 -77.625 60.875 -77.625 60.875 Z M19.375 59.875 C20.375 62.875 20.375 62.875 20.375 62.875 Z M-77.625 61.875 C-76.625 63.875 -76.625 63.875 -76.625 63.875 Z M-60.625 61.875 C-60.625 62.535 -60.625 63.195 -60.625 63.875 C-51.055 63.875 -41.485 63.875 -31.625 63.875 C-31.625 63.545 -31.625 63.215 -31.625 62.875 C-41.195 62.545 -50.765 62.215 -60.625 61.875 Z M-71.625 62.875 C-67.625 63.875 -67.625 63.875 -67.625 63.875 Z M9.375 62.875 C10.035 63.535 10.695 64.195 11.375 64.875 C12.035 64.215 12.695 63.555 13.375 62.875 C12.055 62.875 10.735 62.875 9.375 62.875 Z M18.375 63.875 C19.375 65.875 19.375 65.875 19.375 65.875 Z M-76.625 64.875 C-75.625 66.875 -75.625 66.875 -75.625 66.875 Z M17.375 65.875 C18.375 67.875 18.375 67.875 18.375 67.875 Z M-75.625 66.875 C-74.625 68.875 -74.625 68.875 -74.625 68.875 Z M16.375 67.875 C17.375 69.875 17.375 69.875 17.375 69.875 Z M-74.625 68.875 C-73.625 70.875 -73.625 70.875 -73.625 70.875 Z M-36.625 68.875 C-36.625 71.185 -36.625 73.495 -36.625 75.875 C-36.295 75.875 -35.965 75.875 -35.625 75.875 C-35.625 73.565 -35.625 71.255 -35.625 68.875 C-35.955 68.875 -36.285 68.875 -36.625 68.875 Z M15.375 69.875 C16.375 71.875 16.375 71.875 16.375 71.875 Z M-18.625 70.875 C-17.625 74.875 -17.625 74.875 -17.625 74.875 Z M14.375 71.875 C15.375 73.875 15.375 73.875 15.375 73.875 Z M-71.625 73.875 C-70.625 75.875 -70.625 75.875 -70.625 75.875 Z M12.375 74.875 C13.375 76.875 13.375 76.875 13.375 76.875 Z M-31.625 81.875 C-31.625 82.205 -31.625 82.535 -31.625 82.875 C-29.645 82.875 -27.665 82.875 -25.625 82.875 C-25.625 82.545 -25.625 82.215 -25.625 81.875 C-27.605 81.875 -29.585 81.875 -31.625 81.875 Z M-40.625 95.875 C-36.625 96.875 -36.625 96.875 -36.625 96.875 Z M-20.625 95.875 C-16.625 96.875 -16.625 96.875 -16.625 96.875 Z M-35.625 96.875 C-35.625 97.205 -35.625 97.535 -35.625 97.875 C-31.005 97.875 -26.385 97.875 -21.625 97.875 C-21.625 97.545 -21.625 97.215 -21.625 96.875 C-26.245 96.875 -30.865 96.875 -35.625 96.875 Z " fill="#FFFFFF" transform="translate(104.625,7.125)"/>
<!-- <path d="M0 0 C3.96 0 7.92 0 12 0 C12 5.61 12 11.22 12 17 C8 17 4 17 0 17 C0 11.39 0 5.78 0 0 Z " fill="#3B82F6" transform="translate(53,120)"/>
<path d="M0 0 C4 0 8 0 12 0 C12 5.61 12 11.22 12 17 C8 17 4 17 0 17 C0 11.39 0 5.78 0 0 Z " fill="#3B82F6" transform="translate(121,120)"/>
<path d="M0 0 C3.63 0 7.26 0 11 0 C11 5.61 11 11.22 11 17 C7.37 17 3.74 17 0 17 C0 11.39 0 5.78 0 0 Z M4 12 C5 15 5 15 5 15 Z " fill="#3B82F6" transform="translate(17,143)"/>
<path d="M0 0 C6.8359375 -0.1953125 6.8359375 -0.1953125 9 0 C11.84614024 2.84614024 11.45579076 5.80369142 11.625 9.625 C11.66367188 10.33140625 11.70234375 11.0378125 11.7421875 11.765625 C11.83647724 13.50998524 11.91932891 15.25495691 12 17 C8 17 4 17 0 17 C0 11.39 0 5.78 0 0 Z M5 4 C6 7 6 7 6 7 Z " fill="#3B82F6" transform="translate(79,143)"/>
<path d="M0 0 C1.32 0 2.64 0 4 0 C4 1.98 4 3.96 4 6 C4.66 6 5.32 6 6 6 C6 4.02 6 2.04 6 0 C7.65 0 9.3 0 11 0 C11 5.61 11 11.22 11 17 C9.35 17 7.7 17 6 17 C6 14.69 6 12.38 6 10 C5.34 10 4.68 10 4 10 C4 12.31 4 14.62 4 17 C2.68 17 1.36 17 0 17 C0 11.39 0 5.78 0 0 Z " fill="#3B82F6" transform="translate(87,120)"/>
<path d="M0 0 C3.625 0.375 3.625 0.375 7 1 C7.33 2.65 7.66 4.3 8 6 C7.01 6.33 6.02 6.66 5 7 C5.515625 7.350625 6.03125 7.70125 6.5625 8.0625 C8 10 8 10 7.8125 13.625 C7.544375 14.73875 7.27625 15.8525 7 17 C4.23749964 18.38125018 2.05268901 18.19079306 -1 18 C-3 16 -3 16 -3.125 13.375 C-3.08375 12.59125 -3.0425 11.8075 -3 11 C-2.34 10.67 -1.68 10.34 -1 10 C-1.66 9.01 -2.32 8.02 -3 7 C-2.6758631 3.67759676 -2.39223697 2.39223697 0 0 Z M2 4 C3 6 3 6 3 6 Z M2 12 C3 14 3 14 3 14 Z " fill="#3B82F6" transform="translate(73,119)"/>
<path d="M0 0 C1.32 0 2.64 0 4 0 C4 4.29 4 8.58 4 13 C4.66 13 5.32 13 6 13 C6 8.71 6 4.42 6 0 C7.65 0 9.3 0 11 0 C11.05383848 2.45862401 11.09359038 4.9160755 11.125 7.375 C11.14175781 8.07367188 11.15851562 8.77234375 11.17578125 9.4921875 C11.19344267 11.32897486 11.10303261 13.16601963 11 15 C9 17 9 17 7.08984375 17.23046875 C1.11111111 17.11111111 1.11111111 17.11111111 0 16 C-0.07319621 13.30345146 -0.09242537 10.63308542 -0.0625 7.9375 C-0.05798828 7.17888672 -0.05347656 6.42027344 -0.04882812 5.63867188 C-0.0370068 3.75908129 -0.01907078 1.87953101 0 0 Z " fill="#3B82F6" transform="translate(0,143)"/>
<path d="M0 0 C1.7325 0.1546875 1.7325 0.1546875 3.5 0.3125 C5.5 3.3125 5.5 3.3125 5.5 6.3125 C4.51 6.8075 4.51 6.8075 3.5 7.3125 C4.49 8.7975 4.49 8.7975 5.5 10.3125 C4.94444444 15.86805556 4.94444444 15.86805556 3.5 17.3125 C0.82941149 17.45365161 -1.82432238 17.35497107 -4.5 17.3125 C-4.83 15.3325 -5.16 13.3525 -5.5 11.3125 C-4.51 10.9825 -3.52 10.6525 -2.5 10.3125 C-2.995 9.920625 -3.49 9.52875 -4 9.125 C-5.5 7.3125 -5.5 7.3125 -5.8125 4.75 C-5.28854422 0.66314495 -3.98704881 0.3559865 0 0 Z " fill="#3B82F6" transform="translate(101.5,142.6875)"/>
<path d="M0 0 C3.3 0 6.6 0 10 0 C10 1.32 10 2.64 10 4 C8.35 4 6.7 4 5 4 C5 4.66 5 5.32 5 6 C6.65 6 8.3 6 10 6 C10 7.65 10 9.3 10 11 C8.35 11 6.7 11 5 11 C5 11.66 5 12.32 5 13 C6.65 13 8.3 13 10 13 C10 14.32 10 15.64 10 17 C6.7 17 3.4 17 0 17 C0 11.39 0 5.78 0 0 Z " fill="#3B82F6" transform="translate(63,143)"/>
<path d="M0 0 C1.65 0 3.3 0 5 0 C5.33 1.32 5.66 2.64 6 4 C6.66 2.68 7.32 1.36 8 0 C9.65 0 11.3 0 13 0 C12.52434234 2.45906037 12.04463948 4.91720993 11.5625 7.375 C11.42779297 8.07367188 11.29308594 8.77234375 11.15429688 9.4921875 C10.11328125 14.7734375 10.11328125 14.7734375 9 17 C7.02 17 5.04 17 3 17 C2.49453964 14.91798472 1.99583165 12.83432933 1.5 10.75 C1.2215625 9.58984375 0.943125 8.4296875 0.65625 7.234375 C0 4 0 4 0 0 Z " fill="#3B82F6" transform="translate(45,143)"/>
<path d="M0 0 C1.65 0 3.3 0 5 0 C6.65684137 3.7522584 7.50208163 7.26353061 8.125 11.3125 C8.29257813 12.38113281 8.46015625 13.44976562 8.6328125 14.55078125 C8.75398438 15.35902344 8.87515625 16.16726562 9 17 C7.35 17 5.7 17 4 17 C4 16.01 4 15.02 4 14 C3.01 14 2.02 14 1 14 C1 14.99 1 15.98 1 17 C-0.65 17 -2.3 17 -4 17 C-2.07289294 5.47835991 -2.07289294 5.47835991 0 0 Z M2 8 C3 10 3 10 3 10 Z " fill="#3B82F6" transform="translate(107,120)"/>
<path d="M0 0 C1.98 0 3.96 0 6 0 C6.50377768 2.26999825 7.00290019 4.54103003 7.5 6.8125 C7.7784375 8.07707031 8.056875 9.34164062 8.34375 10.64453125 C9 14 9 14 9 17 C7.35 17 5.7 17 4 17 C4 16.01 4 15.02 4 14 C3.01 14 2.02 14 1 14 C1 14.99 1 15.98 1 17 C-0.65 17 -2.3 17 -4 17 C-3.52434234 14.54093963 -3.04463948 12.08279007 -2.5625 9.625 C-2.42779297 8.92632812 -2.29308594 8.22765625 -2.15429688 7.5078125 C-1.11328125 2.2265625 -1.11328125 2.2265625 0 0 Z M2 7 C3 10 3 10 3 10 Z " fill="#3B82F6" transform="translate(39,120)"/>
<path d="M0 0 C1.65 0 3.3 0 5 0 C5.33 0.66 5.66 1.32 6 2 C6.66 1.34 7.32 0.68 8 0 C9.32 0 10.64 0 12 0 C11.125 5.75 11.125 5.75 10 8 C9.77532169 9.53668865 9.59203195 11.07968054 9.4375 12.625 C9.35371094 13.44226563 9.26992187 14.25953125 9.18359375 15.1015625 C9.12300781 15.72804687 9.06242188 16.35453125 9 17 C7.35 17 5.7 17 4 17 C3.81824219 15.98679688 3.81824219 15.98679688 3.6328125 14.953125 C3.46523437 14.06109375 3.29765625 13.1690625 3.125 12.25 C2.96257812 11.36828125 2.80015625 10.4865625 2.6328125 9.578125 C2.10278118 7.00834917 2.10278118 7.00834917 0.9296875 4.859375 C0 3 0 3 0 0 Z " fill="#3B82F6" transform="translate(139,143)"/>
<path d="M0 0 C1.98 0 3.96 0 6 0 C6.33 0.66 6.66 1.32 7 2 C7.33 1.34 7.66 0.68 8 0 C9.65 0 11.3 0 13 0 C12.79503906 0.556875 12.59007812 1.11375 12.37890625 1.6875 C10.56121505 6.83617554 9.49429453 11.56276016 9 17 C7.35 17 5.7 17 4 17 C3.87882812 16.19175781 3.75765625 15.38351563 3.6328125 14.55078125 C3.46523438 13.48214844 3.29765625 12.41351563 3.125 11.3125 C2.96257813 10.25675781 2.80015625 9.20101562 2.6328125 8.11328125 C2.04106931 5.20205086 1.1968194 2.71044393 0 0 Z " fill="#3B82F6" transform="translate(17,120)"/>
<path d="M0 0 C3.63 0 7.26 0 11 0 C11 1.32 11 2.64 11 4 C10.01 4 9.02 4 8 4 C8 8.29 8 12.58 8 17 C6.35 17 4.7 17 3 17 C3 12.71 3 8.42 3 4 C2.01 4 1.02 4 0 4 C0 2.68 0 1.36 0 0 Z " fill="##3B82F6" transform="translate(123,143)"/>
<path d="M0 0 C1.65 0 3.3 0 5 0 C5 5.61 5 11.22 5 17 C3.35 17 1.7 17 0 17 C0 11.39 0 5.78 0 0 Z " fill="#3B82F6" transform="translate(113,143)"/>
<path d="M0 0 C1.65 0 3.3 0 5 0 C5 5.61 5 11.22 5 17 C3.35 17 1.7 17 0 17 C0 11.39 0 5.78 0 0 Z " fill="#3B82F6" transform="translate(34,143)"/> -->
</svg>
